<svg width="32" height="32" viewBox="0 0 32 32" fill="none" xmlns="http://www.w3.org/2000/svg">
  <!-- Background circle -->
  <circle cx="16" cy="16" r="15" fill="#8B4513" fill-opacity="0.15" stroke="#8B4513" stroke-width="1"/>
  
  <!-- Wood grain pattern -->
  <defs>
    <pattern id="faviconWoodTexture" patternUnits="userSpaceOnUse" width="4" height="8">
      <path d="M0,0 Q2,2 0,4 Q2,6 0,8" stroke="#CD853F" stroke-width="0.3" fill="none" opacity="0.4"/>
    </pattern>
  </defs>
  
  <!-- Subtle texture -->
  <circle cx="16" cy="16" r="13" fill="url(#faviconWoodTexture)" opacity="0.3"/>
  
  <!-- Simplified chisel icon -->
  <g transform="translate(16, 16)">
    <!-- Chisel handle -->
    <rect x="-1" y="-8" width="2" height="6" fill="#CD853F" rx="1"/>
    <!-- Metal ferrule -->
    <rect x="-1.2" y="-2.5" width="2.4" height="1" fill="#C0C0C0"/>
    <!-- Chisel blade -->
    <path d="M-1.5,-1.5 L1.5,-1.5 L2,3 L-2,3 Z" fill="#808080"/>
    <!-- Blade highlight -->
    <path d="M-0.5,-1.5 L0.5,-1.5 L1,1 L-1,1 Z" fill="#E8E8E8" opacity="0.7"/>
    <!-- Wood shaving -->
    <path d="M3,-2 Q5,-3 4,0 Q3,1 3,-2" fill="#DEB887" opacity="0.8"/>
  </g>
  
  <!-- Decorative accent -->
  <circle cx="8" cy="8" r="1" fill="#D4AF37" opacity="0.6"/>
  <circle cx="24" cy="24" r="1" fill="#D4AF37" opacity="0.6"/>
</svg>
